<svg id="eI8mEBUSwhX1" xmlns="http://www.w3.org/2000/svg" viewBox="0 0 300 300" shapeRendering="geometricPrecision" textRendering="geometricPrecision">
<g transform="translate(.000001 0)">
    <!-- <path d="M132.480469,21.300781C74.699219,29.21875,28.921875,75.238281,21.300781,133.078125c-1.140625,8.703125-1.140625,25.140625,0,33.84375C28.921875,225,75,271.078125,132.960938,278.699219c8.820312,1.140625,25.257812,1.140625,34.078124,0c52.800782-6.898438,96.300782-45.960938,109.019532-97.800781c2.519531-10.257813,3.542968-19.257813,3.542968-30.898438c0-5.578125-.421874-13.199219-.902343-16.921875C274.980469,105,261.898438,78.300781,241.980469,58.378906c-20.339844-20.277344-46.800781-33.359375-75.058594-37.078125-8.28125-1.082031-26.34375-1.082031-34.441406,0Zm31.320312,3.300781c49.800781,6.058594,90.539063,39.117188,105.898438,86.039063c8.519531,25.859375,8.519531,52.859375,0,78.660156-12.539063,38.21875-42.179688,67.859375-80.398438,80.398438-25.800781,8.519531-52.800781,8.519531-78.601562,0C63.71875,254.28125,30.660156,213.601562,24.601562,163.800781c-.78125-6.539062-.78125-21.0625,0-27.601562C29.941406,92.101562,56.460938,54.960938,95.941406,36.121094c11.578125-5.519532,26.398438-9.78125,39.359375-11.460938c6-.71875,22.5-.78125,28.5-.058594Zm0,0" transform="translate(.000001 0)"/> -->
    <path d="M75.421875,90.660156c-5.761719,1.378906-10.921875,5.640625-13.5625,11.28125-1.5,3.238282-1.558594,3.777344-1.558594,13.5v10.136719l3.300781.78125c1.796876.421875,21.660157,5.101563,44.097657,10.441406c22.441406,5.339844,41.640625,9.660157,42.601562,9.660157c1.019531-.0625,21.539063-4.742188,45.597657-10.441407l43.800781-10.378906v-10.199219c0-9.722656-.058594-10.261718-1.558594-13.5-2.039063-4.320312-5.761719-8.042968-10.082031-10.082031l-3.359375-1.558594-73.5-.121093c-41.640625,0-74.460938.179687-75.777344.480468Zm0,0" transform="translate(0 0.000001)"/>
    <path d="M60.121094,163.320312l.179687,31.378907l1.558594,3.359375c2.039063,4.320312,5.761719,8.042968,10.082031,10.082031l3.359375,1.558594h149.398438l3.359375-1.558594c4.320312-2.039063,8.042968-5.761719,10.082031-10.082031l1.558594-3.359375.179687-31.378907c.179688-29.941406.121094-31.378906-.898437-31.082031-.601563.121094-20.878907,4.921875-45,10.621094L150,153.238281l-6.71875-1.617187c-3.722656-.902344-23.402344-5.519532-43.679688-10.320313-20.28125-4.742187-37.5-8.820312-38.28125-9l-1.378906-.359375Zm0,0" transform="translate(0 0.000001)"/>
</g>
</svg>