<svg id="eEboXwmWS6l1" xmlns="http://www.w3.org/2000/svg" viewBox="0 0 300 300" shapeRendering="geometricPrecision" textRendering="geometricPrecision">
    <!-- <ellipse rx="128" ry="128" transform="translate(150.000055 150)" fill="none" stroke="#000" strokeWidth="4"/> -->
    <g transform="matrix(.078076 0 0-.078076 81.293177 239.98259)">
        <path d="M215,2223c-45-23-76-54-91-90-12-27-14-200-14-985c0-1068-5-989,73-1052l39-31h658h658l38,30c79,65,74-1,74,917v818h-189c-185,0-190,1-205,22-13,18-16,56-16,205v183h-497c-434-1-502-3-528-17Zm732-448c48-20,71-41,94-87c46-90,7-203-86-248-118-57-255,32-255,165c0,130,129,219,247,170ZM706,1401c97-86,251-85,350,2l45,40l26-24c60-57,102-141,117-236c5-35,3-46-14-63-19-19-33-20-344-20-178,0-332,3-341,6-60,23-22,188,67,289c22,25,42,45,45,45s25-17,49-39Zm432-493c15-15,15-51,0-66-17-17-499-17-516,0-16,16-15,65,1,71c6,3,122,6,258,6c178,1,248-2,257-11Zm230-270c15-15,15-51,0-66-17-17-959-17-976,0-15,15-15,51,0,66c17,17,959,17,976,0Zm-4-274c9-8,16-24,16-34s-7-26-16-34c-14-14-71-16-480-16-302,0-472,4-485,10-25,14-26,65-1,79c11,7,185,11,484,11c411,0,468-2,482-16Z" fill="#6b00d7"/>
        <path d="M1340,2066v-136h142h141l-24,26c-13,14-77,76-141,136l-118,110v-136Z" fill="#6b00d7"/>
    </g>
</svg>