<svg id="ejR9r1TUXdk1" xmlns="http://www.w3.org/2000/svg" viewBox="0 0 300 300" shapeRendering="geometricPrecision" textRendering="geometricPrecision">
    <g>
        <!-- <path d="M138.265625,20.492188C106.808594,23.625,78.898438,36.894531,57.191406,59.046875c-4.472656,4.570313-7.351562,7.832031-10.546875,12.085937-14.164062,18.699219-22.570312,39.386719-25.738281,63.203126-.703125,5.210937-.957031,20.523437-.476562,26.214843c2.300781,26.214844,11.957031,50.382813,28.355468,70.90625c4.410156,5.53125,14.097656,15.21875,19.628906,19.628907c8.152344,6.523437,17.773438,12.5,26.824219,16.6875c13.839844,6.394531,28.292969,10.230468,43.667969,11.636718c4.539062.417969,17.519531.417969,22.058594,0c31.617187-2.875,60.070312-16.367187,82-38.875c14.804687-15.183594,25.640625-33.660156,31.585937-53.898437c2.335938-7.832031,4.09375-17.167969,4.859375-25.671875.417969-4.539063.417969-17.519532,0-22.058594-2.363281-26.085938-12.050781-50.160156-28.324218-70.492188-3.835938-4.761718-13.488282-14.640624-17.710938-18.125-19.914062-16.273437-41.589844-25.769531-66.816406-29.253906-3.644532-.511718-6.839844-.671875-15.023438-.734375-5.722656-.0625-11.667968.03125-13.269531.191407Zm25.738281,4.285156c20.554688,2.460937,38.839844,9.175781,55.785156,20.492187c8.855469,5.882813,16.175782,12.117188,22.699219,19.308594c14.769531,16.304687,24.648438,34.65625,29.730469,55.308594c2.527344,10.324219,3.484375,18.667969,3.484375,30.050781c0,4.667969-.160156,10.132812-.382813,12.148438-3.003906,27.941406-13.90625,52.332031-32.707031,73.082031-6.488281,7.160156-14.03125,13.585937-22.824219,19.4375-17.390624,11.636719-36.539062,18.476562-57.703124,20.714843-5.148438.542969-19.152344.542969-24.296876,0-34.65625-3.644531-65.347656-20.429687-86.828124-47.570312-12.4375-15.664062-21.164063-35.007812-24.875-55.117188-1.535157-8.375-1.917969-12.914062-1.917969-22.695312c0-9.785156.382812-14.324219,1.917969-22.699219c5.59375-30.273437,21.804687-57.160156,46.035156-76.277343c3.996094-3.167969,12.054687-8.539063,16.273437-10.902344c16.335938-9.113282,34.65625-14.484375,53.867188-15.890625c3.804687-.253907,17.617187.128906,21.742187.609375Zm0,0"/> -->
        <path d="M86.382812,70.492188c-7.066406,1.535156-17.710937,9.878906-23.242187,18.222656-2.847656,4.25-4.957031,10.039062-5.980469,16.304687-.511718,3.261719-.511718,16.207031,0,22.699219c1.726563,21.289062,4.378906,35.582031,9.6875,51.820312c3.835938,11.734376,5.53125,15.761719,9.046875,21.355469c6.203125,9.816407,19.085938,22.570313,26.855469,26.566407c2.75,1.40625,4.058594,1.4375,9.527344.160156c7.511718-1.726563,9.269531-1.789063,17.359375-.671875c5.144531.703125,13.042969,1.121093,21.738281,1.121093c8.441406.03125,9.558594-.066406,12.53125-.703124c15.34375-3.359376,28.582031-13.109376,39.226562-28.933594c3.421876-5.082032,5.820313-9.589844,8.472657-15.953125l2.171875-5.148438l3.070312-1.054687c10.167969-3.386719,17.679688-9.460938,22.15625-17.835938c4.441406-8.378906,5.335938-17.90625,2.84375-30.4375-3.070312-15.3125-11.957031-25.925781-24.359375-29.089844-6.363281-1.597656-14.960937-1.664062-22.890625-.128906-13.109375,2.527344-24.074218,10.390625-29.15625,20.875-1.855468,3.902344-2.6875,7.003906-2.941406,11.160156l-.191406,3.449219h-.992188c-3.226562.035157-12.210937.703125-14.671875,1.121094-12.40625,2.171875-20.238281,8.472656-26.121093,21.003906-.957032,2.078125-1.917969,3.773438-2.109376,3.773438s-.765624-.769531-1.246093-1.695313c-3.421875-6.332031-6.457031-10.421875-12.789063-17.328125-7-7.640625-9.269531-10.773437-12.722656-17.742187-2.972656-5.914063-4.699219-10.328125-4.285156-10.742188.128906-.128906,1.121094.03125,2.207031.382813c1.566406.480469,3.003906.609375,6.328125.609375c4.15625,0,4.382812-.035156,5.757812-.898438c5.371094-3.355468,6.296876-4.027344,7.640626-5.753906.796874-.988281,2.078124-2.238281,2.78125-2.75c1.660156-1.179688,2.492187-2.269531,4.441406-5.914062c1.121094-2.109376,1.566406-3.355469,1.664062-4.664063.191406-2.015625-.449218-4.988281-1.535156-7.097656-1.757812-3.421875-11.796875-12.054688-17.261719-14.835938-3.328125-1.660156-8.664062-2.171875-13.011719-1.246093Zm0,0" transform="translate(-.035044 0.733307)" fill="#6b00d7"/>
    </g>
</svg>