{"asset":{"version":"2.0","generator":"VECTARY"},"nodes":[{"translation":[0,0,0],"scale":[0.001,0.001,0.001],"rotation":[-0.7071067811865475,0,0,0.7071067811865476],"name":"Group","children":[1,2,4,6,7,8,9]},{"translation":[0,0,0],"scale":[1.25,1.25,1.0002859031458171],"rotation":[0,0.7071067811865475,0,0.7071067811865476],"name":"Cylinder","mesh":0},{"translation":[-377.4715240847598,0,150],"scale":[1,1,1],"rotation":[0.7071067811865475,0,0,0.7071067811865476],"name":"untitled (2)","children":[3]},{"translation":[54.24295601238816,-64.82694742943943,-1.4394473930465652e-14],"scale":[0.6666666666666667,0.6,0.5],"rotation":[0,0,0,1],"name":"Cylinder 2","mesh":1},{"translation":[-305,1.5,-50],"scale":[1,1,1],"rotation":[0.7071067811865475,0,0,0.7071067811865476],"name":"untitled (1)","children":[5]},{"translation":[6.840487473002042,50,1.500000000000011],"scale":[1.25,1,1.25],"rotation":[0,0,0.7071067811865475,0.7071067811865476],"name":"Cylinder","mesh":2},{"translation":[61.37633769744989,0,53.41026525057177],"scale":[0.5,1,1.3997200559888021],"rotation":[0,-0.7071067811865475,0,0.7071067811865476],"name":"Cylinder 1","mesh":3},{"translation":[43.054532243966975,103.4927517722968,2.8793735088555436e-14],"scale":[1.25,1.25,0.75],"rotation":[0,0,0,1],"name":"Box 1","mesh":4},{"translation":[43.054532243966946,1.4210854715202004e-14,-103.49275177229677],"scale":[1.25,1.25,0.75],"rotation":[-0.7071067811865475,2.614729197631574e-32,1.570092458683775e-16,0.7071067811865476],"name":"Box 1","mesh":5},{"translation":[43.054532243966975,-103.4927517722968,1.6119528369265952e-14],"scale":[1.25,1.25,0.75],"rotation":[1,-6.3517954519530055e-34,-2.220446049250313e-16,-6.123233995736765e-17],"name":"Box 1","mesh":6}],"materials":[{"pbrMetallicRoughness":{"baseColorFactor":[0.07805658995810189,0.07805658995810189,0.08241420588845924,1],"metallicFactor":0,"roughnessFactor":0.2},"name":"Secret Path","emissiveFactor":[0,0,0],"extensions":{},"alphaMode":"OPAQUE","doubleSided":false},{"pbrMetallicRoughness":{"baseColorFactor":[0.042987010162657116,0.042987010162657116,0.04777575355617064,1],"metallicFactor":0,"roughnessFactor":0.2},"name":"Bronco","emissiveFactor":[0,0,0],"extensions":{},"alphaMode":"OPAQUE","doubleSided":false},{"pbrMetallicRoughness":{"baseColorFactor":[1,1,1,1],"baseColorTexture":{"index":0,"extensions":{"KHR_texture_transform":{"offset":[0,0],"scale":[1,1],"rotation":0}},"texCoord":0},"metallicFactor":0,"roughnessFactor":0.2},"name":"Haiti","emissiveFactor":[0,0,0],"extensions":{},"alphaMode":"OPAQUE","doubleSided":false},{"pbrMetallicRoughness":{"baseColorFactor":[0.007155037004573032,0.00775102739766061,0.013473396940142641,1],"metallicFactor":0,"roughnessFactor":0.2},"name":"Ducati 1","emissiveFactor":[0,0,0],"extensions":{},"alphaMode":"OPAQUE","doubleSided":false},{"pbrMetallicRoughness":{"baseColorFactor":[0.14799802298268516,0.2271365255051489,0.5113978188848795,1],"metallicFactor":0,"roughnessFactor":0.2},"name":"Kingdom","emissiveFactor":[0,0,0],"extensions":{},"alphaMode":"OPAQUE","doubleSided":false}],"meshes":[{"primitives":[{"mode":4,"attributes":{"POSITION":1,"NORMAL":2,"TEXCOORD_0":3},"material":0,"indices":0}]},{"primitives":[{"mode":4,"attributes":{"POSITION":5,"NORMAL":6,"TEXCOORD_0":7},"material":1,"indices":4}]},{"primitives":[{"mode":4,"attributes":{"POSITION":9,"NORMAL":10,"TEXCOORD_0":11},"material":2,"indices":8}]},{"primitives":[{"mode":4,"attributes":{"POSITION":13,"NORMAL":14,"TEXCOORD_0":15},"material":3,"indices":12}]},{"primitives":[{"mode":4,"attributes":{"POSITION":17,"NORMAL":18,"TEXCOORD_0":19},"material":4,"indices":16}]},{"primitives":[{"mode":4,"attributes":{"POSITION":17,"NORMAL":18,"TEXCOORD_0":19},"material":4,"indices":16}]},{"primitives":[{"mode":4,"attributes":{"POSITION":17,"NORMAL":18,"TEXCOORD_0":19},"material":4,"indices":16}]}],"accessors":[{"bufferView":0,"byteOffset":0,"componentType":5125,"count":3456,"type":"SCALAR"},{"bufferView":1,"byteOffset":0,"componentType":5126,"count":662,"max":[49.880714416503906,49.880714416503906,279],"min":[-49.880714416503906,-49.880714416503906,0],"type":"VEC3"},{"bufferView":2,"byteOffset":0,"componentType":5126,"count":662,"type":"VEC3"},{"bufferView":3,"byteOffset":0,"componentType":5126,"count":662,"type":"VEC2"},{"bufferView":4,"byteOffset":0,"componentType":5125,"count":768,"type":"SCALAR"},{"bufferView":5,"byteOffset":0,"componentType":5126,"count":262,"max":[150,125,50],"min":[-150,-125,-50],"type":"VEC3"},{"bufferView":6,"byteOffset":0,"componentType":5126,"count":262,"type":"VEC3"},{"bufferView":7,"byteOffset":0,"componentType":5126,"count":262,"type":"VEC2"},{"bufferView":8,"byteOffset":0,"componentType":5125,"count":6720,"type":"SCALAR"},{"bufferView":9,"byteOffset":0,"componentType":5126,"count":1431,"max":[50,350,50],"min":[-50,-350,-50],"type":"VEC3"},{"bufferView":10,"byteOffset":0,"componentType":5126,"count":1431,"type":"VEC3"},{"bufferView":11,"byteOffset":0,"componentType":5126,"count":1431,"type":"VEC2"},{"bufferView":12,"byteOffset":0,"componentType":5125,"count":3456,"type":"SCALAR"},{"bufferView":13,"byteOffset":0,"componentType":5126,"count":662,"max":[50.0000114440918,37.63908767700195,497.2958984375],"min":[-49.9999885559082,-37.63908767700195,2.7596726417541504],"type":"VEC3"},{"bufferView":14,"byteOffset":0,"componentType":5126,"count":662,"type":"VEC3"},{"bufferView":15,"byteOffset":0,"componentType":5126,"count":662,"type":"VEC2"},{"bufferView":16,"byteOffset":0,"componentType":5125,"count":2916,"type":"SCALAR"},{"bufferView":17,"byteOffset":0,"componentType":5126,"count":596,"max":[25.945547103881836,50,11.3554105758667],"min":[-31.068347930908203,-50,9.636083977190152e-16],"type":"VEC3"},{"bufferView":18,"byteOffset":0,"componentType":5126,"count":596,"type":"VEC3"},{"bufferView":19,"byteOffset":0,"componentType":5126,"count":596,"type":"VEC2"}],"bufferViews":[{"buffer":0,"byteOffset":0,"byteLength":13824,"target":34963},{"buffer":0,"byteOffset":13824,"byteLength":7944,"target":34962},{"buffer":0,"byteOffset":21768,"byteLength":7944,"target":34962},{"buffer":0,"byteOffset":29712,"byteLength":5296,"target":34962},{"buffer":0,"byteOffset":35008,"byteLength":3072,"target":34963},{"buffer":0,"byteOffset":38080,"byteLength":3144,"target":34962},{"buffer":0,"byteOffset":41224,"byteLength":3144,"target":34962},{"buffer":0,"byteOffset":44368,"byteLength":2096,"target":34962},{"buffer":0,"byteOffset":46464,"byteLength":26880,"target":34963},{"buffer":0,"byteOffset":73344,"byteLength":17172,"target":34962},{"buffer":0,"byteOffset":90516,"byteLength":17172,"target":34962},{"buffer":0,"byteOffset":107688,"byteLength":11448,"target":34962},{"buffer":0,"byteOffset":119136,"byteLength":13824,"target":34963},{"buffer":0,"byteOffset":132960,"byteLength":7944,"target":34962},{"buffer":0,"byteOffset":140904,"byteLength":7944,"target":34962},{"buffer":0,"byteOffset":148848,"byteLength":5296,"target":34962},{"buffer":0,"byteOffset":154144,"byteLength":11664,"target":34963},{"buffer":0,"byteOffset":165808,"byteLength":7152,"target":34962},{"buffer":0,"byteOffset":172960,"byteLength":7152,"target":34962},{"buffer":0,"byteOffset":180112,"byteLength":4768,"target":34962}],"textures":[{"sampler":0,"source":0}],"images":[{"uri":"Linear_Gradient_Texture.jpg","mimeType":"image/jpeg"}],"samplers":[{"wrapS":10497,"wrapT":10497}],"scene":0,"scenes":[{"nodes":[0],"name":"Submarine"}],"extensionsUsed":["KHR_texture_transform"],"buffers":[{"byteLength":184880,"uri":"Submarine.bin"}]}