{
    "asset" : {
        "generator" : "Khronos glTF Blender I/O v3.2.43",
        "version" : "2.0"
    },
    "extensionsUsed" : [
        "KHR_materials_transmission"
    ],
    "scene" : 0,
    "scenes" : [
        {
            "name" : "Scene",
            "nodes" : [
                4,
                5,
                6,
                7,
                8
            ]
        }
    ],
    "nodes" : [
        {
            "mesh" : 0,
            "name" : "Cube"
        },
        {
            "mesh" : 1,
            "name" : "Cube 2",
            "translation" : [
                10,
                0,
                0
            ]
        },
        {
            "mesh" : 2,
            "name" : "Cube 3",
            "translation" : [
                0,
                10,
                0
            ]
        },
        {
            "mesh" : 3,
            "name" : "Cube 4",
            "translation" : [
                10,
                10,
                0
            ]
        },
        {
            "children" : [
                0,
                1,
                2,
                3
            ],
            "name" : "Node_0",
            "translation" : [
                -5,
                5,
                0
            ]
        },
        {
            "mesh" : 4,
            "name" : "Cube.001",
            "scale" : [
                11.25,
                11.25,
                6.25
            ],
            "translation" : [
                0,
                10,
                0
            ]
        },
        {
            "mesh" : 5,
            "name" : "Cube.002",
            "scale" : [
                12.5,
                12.5,
                6.25
            ],
            "translation" : [
                0,
                10,
                0
            ]
        },
        {
            "mesh" : 6,
            "name" : "Plane",
            "rotation" : [
                0,
                0,
                -0.7071068286895752,
                0.7071068286895752
            ],
            "scale" : [
                5,
                1,
                5
            ],
            "translation" : [
                -12.029999732971191,
                10,
                0
            ]
        },
        {
            "mesh" : 7,
            "name" : "Plane.001",
            "rotation" : [
                0,
                0,
                0.3826834559440613,
                0.9238795638084412
            ],
            "scale" : [
                1.3645087480545044,
                3.411271572113037,
                0.8233814239501953
            ],
            "translation" : [
                -11.669992446899414,
                20.93000030517578,
                0
            ]
        }
    ],
    "materials" : [
        {
            "doubleSided" : true,
            "name" : "Material.001",
            "pbrMetallicRoughness" : {
                "baseColorTexture" : {
                    "index" : 0
                },
                "metallicFactor" : 0,
                "roughnessFactor" : 0.5
            }
        },
        {
            "doubleSided" : true,
            "name" : "Material.002",
            "pbrMetallicRoughness" : {
                "baseColorTexture" : {
                    "index" : 1
                },
                "metallicFactor" : 0,
                "roughnessFactor" : 0.5
            }
        },
        {
            "doubleSided" : true,
            "name" : "Material.003",
            "pbrMetallicRoughness" : {
                "baseColorTexture" : {
                    "index" : 2
                },
                "metallicFactor" : 0,
                "roughnessFactor" : 0.5
            }
        },
        {
            "doubleSided" : true,
            "name" : "Material.004",
            "pbrMetallicRoughness" : {
                "baseColorTexture" : {
                    "index" : 3
                },
                "metallicFactor" : 0,
                "roughnessFactor" : 0.5
            }
        },
        {
            "doubleSided" : true,
            "name" : "Material.005",
            "pbrMetallicRoughness" : {
                "baseColorFactor" : [
                    0.0003035266709048301,
                    0.0003035266709048301,
                    0.0003035266709048301,
                    1
                ],
                "metallicFactor" : 0,
                "roughnessFactor" : 0.5
            }
        },
        {
            "doubleSided" : true,
            "extensions" : {
                "KHR_materials_transmission" : {
                    "transmissionFactor" : 1
                }
            },
            "name" : "Material.007",
            "pbrMetallicRoughness" : {
                "baseColorFactor" : [
                    0.8000000715255737,
                    0.42485809326171875,
                    0.49195778369903564,
                    1
                ],
                "metallicFactor" : 0,
                "roughnessFactor" : 0.14566929638385773
            }
        },
        {
            "doubleSided" : true,
            "name" : "Material.008",
            "pbrMetallicRoughness" : {
                "baseColorTexture" : {
                    "index" : 4
                },
                "metallicFactor" : 0,
                "roughnessFactor" : 0.5
            }
        },
        {
            "doubleSided" : true,
            "name" : "Material.009",
            "pbrMetallicRoughness" : {
                "baseColorTexture" : {
                    "index" : 5
                },
                "metallicFactor" : 0,
                "roughnessFactor" : 0.5
            }
        }
    ],
    "meshes" : [
        {
            "name" : "Mesh_3",
            "primitives" : [
                {
                    "attributes" : {
                        "POSITION" : 0,
                        "NORMAL" : 1,
                        "TEXCOORD_0" : 2
                    },
                    "indices" : 3,
                    "material" : 0
                }
            ]
        },
        {
            "name" : "Mesh_2",
            "primitives" : [
                {
                    "attributes" : {
                        "POSITION" : 4,
                        "NORMAL" : 5,
                        "TEXCOORD_0" : 6
                    },
                    "indices" : 3,
                    "material" : 1
                }
            ]
        },
        {
            "name" : "Mesh_1",
            "primitives" : [
                {
                    "attributes" : {
                        "POSITION" : 7,
                        "NORMAL" : 8,
                        "TEXCOORD_0" : 9
                    },
                    "indices" : 3,
                    "material" : 2
                }
            ]
        },
        {
            "name" : "Mesh_0",
            "primitives" : [
                {
                    "attributes" : {
                        "POSITION" : 10,
                        "NORMAL" : 11,
                        "TEXCOORD_0" : 12
                    },
                    "indices" : 3,
                    "material" : 3
                }
            ]
        },
        {
            "name" : "Cube.001",
            "primitives" : [
                {
                    "attributes" : {
                        "POSITION" : 13,
                        "NORMAL" : 14,
                        "TEXCOORD_0" : 15
                    },
                    "indices" : 16,
                    "material" : 4
                }
            ]
        },
        {
            "name" : "Cube.002",
            "primitives" : [
                {
                    "attributes" : {
                        "POSITION" : 17,
                        "NORMAL" : 18,
                        "TEXCOORD_0" : 19
                    },
                    "indices" : 20,
                    "material" : 5
                }
            ]
        },
        {
            "name" : "Plane",
            "primitives" : [
                {
                    "attributes" : {
                        "POSITION" : 21,
                        "NORMAL" : 22,
                        "TEXCOORD_0" : 23
                    },
                    "indices" : 24,
                    "material" : 6
                }
            ]
        },
        {
            "name" : "Plane.001",
            "primitives" : [
                {
                    "attributes" : {
                        "POSITION" : 25,
                        "NORMAL" : 26,
                        "TEXCOORD_0" : 27
                    },
                    "indices" : 28,
                    "material" : 7
                }
            ]
        }
    ],
    "textures" : [
        {
            "sampler" : 0,
            "source" : 0
        },
        {
            "sampler" : 0,
            "source" : 1
        },
        {
            "sampler" : 0,
            "source" : 2
        },
        {
            "sampler" : 0,
            "source" : 3
        },
        {
            "sampler" : 0,
            "source" : 4
        },
        {
            "sampler" : 1,
            "source" : 5
        }
    ],
    "images" : [
        {
            "bufferView" : 4,
            "mimeType" : "image/png",
            "name" : "86_asembly"
        },
        {
            "bufferView" : 8,
            "mimeType" : "image/jpeg",
            "name" : "c_logo_black"
        },
        {
            "bufferView" : 12,
            "mimeType" : "image/jpeg",
            "name" : "cplusplus"
        },
        {
            "bufferView" : 16,
            "mimeType" : "image/jpeg",
            "name" : "csharp_new"
        },
        {
            "bufferView" : 29,
            "mimeType" : "image/jpeg",
            "name" : "biometric_handprint"
        },
        {
            "bufferView" : 34,
            "mimeType" : "image/jpeg",
            "name" : "power_button"
        }
    ],
    "accessors" : [
        {
            "bufferView" : 0,
            "componentType" : 5126,
            "count" : 24,
            "max" : [
                5,
                5,
                5
            ],
            "min" : [
                -5,
                -5,
                -5
            ],
            "type" : "VEC3"
        },
        {
            "bufferView" : 1,
            "componentType" : 5126,
            "count" : 24,
            "type" : "VEC3"
        },
        {
            "bufferView" : 2,
            "componentType" : 5126,
            "count" : 24,
            "type" : "VEC2"
        },
        {
            "bufferView" : 3,
            "componentType" : 5123,
            "count" : 36,
            "type" : "SCALAR"
        },
        {
            "bufferView" : 5,
            "componentType" : 5126,
            "count" : 24,
            "max" : [
                5,
                5,
                5
            ],
            "min" : [
                -5,
                -5,
                -5
            ],
            "type" : "VEC3"
        },
        {
            "bufferView" : 6,
            "componentType" : 5126,
            "count" : 24,
            "type" : "VEC3"
        },
        {
            "bufferView" : 7,
            "componentType" : 5126,
            "count" : 24,
            "type" : "VEC2"
        },
        {
            "bufferView" : 9,
            "componentType" : 5126,
            "count" : 24,
            "max" : [
                5,
                5,
                5
            ],
            "min" : [
                -5,
                -5,
                -5
            ],
            "type" : "VEC3"
        },
        {
            "bufferView" : 10,
            "componentType" : 5126,
            "count" : 24,
            "type" : "VEC3"
        },
        {
            "bufferView" : 11,
            "componentType" : 5126,
            "count" : 24,
            "type" : "VEC2"
        },
        {
            "bufferView" : 13,
            "componentType" : 5126,
            "count" : 24,
            "max" : [
                5,
                5,
                5
            ],
            "min" : [
                -5,
                -5,
                -5
            ],
            "type" : "VEC3"
        },
        {
            "bufferView" : 14,
            "componentType" : 5126,
            "count" : 24,
            "type" : "VEC3"
        },
        {
            "bufferView" : 15,
            "componentType" : 5126,
            "count" : 24,
            "type" : "VEC2"
        },
        {
            "bufferView" : 17,
            "componentType" : 5126,
            "count" : 62,
            "max" : [
                1,
                1,
                1
            ],
            "min" : [
                -1.0674893856048584,
                -1,
                -1
            ],
            "type" : "VEC3"
        },
        {
            "bufferView" : 18,
            "componentType" : 5126,
            "count" : 62,
            "type" : "VEC3"
        },
        {
            "bufferView" : 19,
            "componentType" : 5126,
            "count" : 62,
            "type" : "VEC2"
        },
        {
            "bufferView" : 20,
            "componentType" : 5123,
            "count" : 102,
            "type" : "SCALAR"
        },
        {
            "bufferView" : 21,
            "componentType" : 5126,
            "count" : 4,
            "max" : [
                0.8476917743682861,
                0.8476917743682861,
                -1
            ],
            "min" : [
                -0.8476917743682861,
                -0.8476917743682861,
                -1
            ],
            "type" : "VEC3"
        },
        {
            "bufferView" : 22,
            "componentType" : 5126,
            "count" : 4,
            "type" : "VEC3"
        },
        {
            "bufferView" : 23,
            "componentType" : 5126,
            "count" : 4,
            "type" : "VEC2"
        },
        {
            "bufferView" : 24,
            "componentType" : 5123,
            "count" : 6,
            "type" : "SCALAR"
        },
        {
            "bufferView" : 25,
            "componentType" : 5126,
            "count" : 9,
            "max" : [
                1,
                0,
                1
            ],
            "min" : [
                -1,
                0,
                -1
            ],
            "type" : "VEC3"
        },
        {
            "bufferView" : 26,
            "componentType" : 5126,
            "count" : 9,
            "type" : "VEC3"
        },
        {
            "bufferView" : 27,
            "componentType" : 5126,
            "count" : 9,
            "type" : "VEC2"
        },
        {
            "bufferView" : 28,
            "componentType" : 5123,
            "count" : 24,
            "type" : "SCALAR"
        },
        {
            "bufferView" : 30,
            "componentType" : 5126,
            "count" : 10,
            "max" : [
                0.3125,
                0,
                1
            ],
            "min" : [
                -0.3125,
                0,
                -1
            ],
            "type" : "VEC3"
        },
        {
            "bufferView" : 31,
            "componentType" : 5126,
            "count" : 10,
            "type" : "VEC3"
        },
        {
            "bufferView" : 32,
            "componentType" : 5126,
            "count" : 10,
            "type" : "VEC2"
        },
        {
            "bufferView" : 33,
            "componentType" : 5123,
            "count" : 24,
            "type" : "SCALAR"
        }
    ],
    "bufferViews" : [
        {
            "buffer" : 0,
            "byteLength" : 288,
            "byteOffset" : 0
        },
        {
            "buffer" : 0,
            "byteLength" : 288,
            "byteOffset" : 288
        },
        {
            "buffer" : 0,
            "byteLength" : 192,
            "byteOffset" : 576
        },
        {
            "buffer" : 0,
            "byteLength" : 72,
            "byteOffset" : 768
        },
        {
            "buffer" : 0,
            "byteLength" : 2812,
            "byteOffset" : 840
        },
        {
            "buffer" : 0,
            "byteLength" : 288,
            "byteOffset" : 3652
        },
        {
            "buffer" : 0,
            "byteLength" : 288,
            "byteOffset" : 3940
        },
        {
            "buffer" : 0,
            "byteLength" : 192,
            "byteOffset" : 4228
        },
        {
            "buffer" : 0,
            "byteLength" : 12192,
            "byteOffset" : 4420
        },
        {
            "buffer" : 0,
            "byteLength" : 288,
            "byteOffset" : 16612
        },
        {
            "buffer" : 0,
            "byteLength" : 288,
            "byteOffset" : 16900
        },
        {
            "buffer" : 0,
            "byteLength" : 192,
            "byteOffset" : 17188
        },
        {
            "buffer" : 0,
            "byteLength" : 27264,
            "byteOffset" : 17380
        },
        {
            "buffer" : 0,
            "byteLength" : 288,
            "byteOffset" : 44644
        },
        {
            "buffer" : 0,
            "byteLength" : 288,
            "byteOffset" : 44932
        },
        {
            "buffer" : 0,
            "byteLength" : 192,
            "byteOffset" : 45220
        },
        {
            "buffer" : 0,
            "byteLength" : 60278,
            "byteOffset" : 45412
        },
        {
            "buffer" : 0,
            "byteLength" : 744,
            "byteOffset" : 105692
        },
        {
            "buffer" : 0,
            "byteLength" : 744,
            "byteOffset" : 106436
        },
        {
            "buffer" : 0,
            "byteLength" : 496,
            "byteOffset" : 107180
        },
        {
            "buffer" : 0,
            "byteLength" : 204,
            "byteOffset" : 107676
        },
        {
            "buffer" : 0,
            "byteLength" : 48,
            "byteOffset" : 107880
        },
        {
            "buffer" : 0,
            "byteLength" : 48,
            "byteOffset" : 107928
        },
        {
            "buffer" : 0,
            "byteLength" : 32,
            "byteOffset" : 107976
        },
        {
            "buffer" : 0,
            "byteLength" : 12,
            "byteOffset" : 108008
        },
        {
            "buffer" : 0,
            "byteLength" : 108,
            "byteOffset" : 108020
        },
        {
            "buffer" : 0,
            "byteLength" : 108,
            "byteOffset" : 108128
        },
        {
            "buffer" : 0,
            "byteLength" : 72,
            "byteOffset" : 108236
        },
        {
            "buffer" : 0,
            "byteLength" : 48,
            "byteOffset" : 108308
        },
        {
            "buffer" : 0,
            "byteLength" : 30822,
            "byteOffset" : 108356
        },
        {
            "buffer" : 0,
            "byteLength" : 120,
            "byteOffset" : 139180
        },
        {
            "buffer" : 0,
            "byteLength" : 120,
            "byteOffset" : 139300
        },
        {
            "buffer" : 0,
            "byteLength" : 80,
            "byteOffset" : 139420
        },
        {
            "buffer" : 0,
            "byteLength" : 48,
            "byteOffset" : 139500
        },
        {
            "buffer" : 0,
            "byteLength" : 20824,
            "byteOffset" : 139548
        }
    ],
    "samplers" : [
        {
            "magFilter" : 9729,
            "minFilter" : 9987
        },
        {
            "magFilter" : 9729,
            "minFilter" : 9987,
            "wrapS" : 33071,
            "wrapT" : 33071
        }
    ],
    "buffers" : [
        {
            "byteLength" : 160372,
            "uri" : "data:application/octet-stream;base64,"
        }
    ]
}
