{
    "asset" : {
        "generator" : "Khronos glTF Blender I/O v3.2.43",
        "version" : "2.0"
    },
    "scene" : 0,
    "scenes" : [
        {
            "name" : "Scene",
            "nodes" : [
                4
            ]
        }
    ],
    "nodes" : [
        {
            "mesh" : 0,
            "name" : "Object_0"
        },
        {
            "mesh" : 1,
            "name" : "Object_1"
        },
        {
            "children" : [
                0,
                1
            ],
            "name" : "85334b9f59734402a7165e02a2ee8479.obj.cleaner"
        },
        {
            "mesh" : 2,
            "name" : "nyan_cat",
            "rotation" : [
                0.7071068286895752,
                0,
                0,
                0.7071067094802856
            ],
            "scale" : [
                0.17999999225139618,
                0.1679999828338623,
                0.16182731091976166
            ],
            "translation" : [
                -0.10999998450279236,
                -5.824527740478516,
                24.062694549560547
            ]
        },
        {
            "children" : [
                2,
                3
            ],
            "name" : "Sketchfab_model",
            "rotation" : [
                -0.7071068286895752,
                0,
                0,
                0.7071067094802856
            ],
            "scale" : [
                0.18027222156524658,
                0.18027222156524658,
                0.18027222156524658
            ]
        }
    ],
    "materials" : [
        {
            "doubleSided" : true,
            "name" : "wire_224198087",
            "pbrMetallicRoughness" : {
                "baseColorFactor" : [
                    0.0034381442237645388,
                    0.0034381442237645388,
                    0.0034381442237645388,
                    1
                ],
                "metallicFactor" : 0,
                "roughnessFactor" : 0.6000000238418579
            }
        },
        {
            "name" : "Bella",
            "pbrMetallicRoughness" : {
                "baseColorTexture" : {
                    "index" : 0
                },
                "metallicFactor" : 0,
                "roughnessFactor" : 0.20000000298023224
            }
        }
    ],
    "meshes" : [
        {
            "name" : "Mesh_1",
            "primitives" : [
                {
                    "attributes" : {
                        "POSITION" : 0,
                        "NORMAL" : 1
                    },
                    "indices" : 2,
                    "material" : 0
                }
            ]
        },
        {
            "name" : "Mesh_2",
            "primitives" : [
                {
                    "attributes" : {
                        "POSITION" : 3,
                        "NORMAL" : 4
                    },
                    "indices" : 5,
                    "material" : 0
                }
            ]
        },
        {
            "name" : "Mesh_0",
            "primitives" : [
                {
                    "attributes" : {
                        "POSITION" : 6,
                        "NORMAL" : 7,
                        "TEXCOORD_0" : 8
                    },
                    "indices" : 9,
                    "material" : 1
                }
            ]
        }
    ],
    "textures" : [
        {
            "sampler" : 0,
            "source" : 0
        }
    ],
    "images" : [
        {
            "bufferView" : 10,
            "mimeType" : "image/png",
            "name" : "with_love_video"
        }
    ],
    "accessors" : [
        {
            "bufferView" : 0,
            "componentType" : 5126,
            "count" : 1448,
            "max" : [
                24.2814998626709,
                8.998800277709961,
                37.95429992675781
            ],
            "min" : [
                -24.52239990234375,
                -8.999600410461426,
                0
            ],
            "type" : "VEC3"
        },
        {
            "bufferView" : 1,
            "componentType" : 5126,
            "count" : 1448,
            "type" : "VEC3"
        },
        {
            "bufferView" : 2,
            "componentType" : 5123,
            "count" : 3507,
            "type" : "SCALAR"
        },
        {
            "bufferView" : 3,
            "componentType" : 5126,
            "count" : 3325,
            "max" : [
                24.2814998626709,
                8.998800277709961,
                37.95429992675781
            ],
            "min" : [
                -24.52239990234375,
                -8.999600410461426,
                1.5
            ],
            "type" : "VEC3"
        },
        {
            "bufferView" : 4,
            "componentType" : 5126,
            "count" : 3325,
            "type" : "VEC3"
        },
        {
            "bufferView" : 5,
            "componentType" : 5123,
            "count" : 17802,
            "type" : "SCALAR"
        },
        {
            "bufferView" : 6,
            "componentType" : 5126,
            "count" : 4,
            "max" : [
                128,
                75.29412078857422,
                0
            ],
            "min" : [
                -128,
                -75.29412078857422,
                0
            ],
            "type" : "VEC3"
        },
        {
            "bufferView" : 7,
            "componentType" : 5126,
            "count" : 4,
            "type" : "VEC3"
        },
        {
            "bufferView" : 8,
            "componentType" : 5126,
            "count" : 4,
            "type" : "VEC2"
        },
        {
            "bufferView" : 9,
            "componentType" : 5123,
            "count" : 6,
            "type" : "SCALAR"
        }
    ],
    "bufferViews" : [
        {
            "buffer" : 0,
            "byteLength" : 17376,
            "byteOffset" : 0
        },
        {
            "buffer" : 0,
            "byteLength" : 17376,
            "byteOffset" : 17376
        },
        {
            "buffer" : 0,
            "byteLength" : 7014,
            "byteOffset" : 34752
        },
        {
            "buffer" : 0,
            "byteLength" : 39900,
            "byteOffset" : 41768
        },
        {
            "buffer" : 0,
            "byteLength" : 39900,
            "byteOffset" : 81668
        },
        {
            "buffer" : 0,
            "byteLength" : 35604,
            "byteOffset" : 121568
        },
        {
            "buffer" : 0,
            "byteLength" : 48,
            "byteOffset" : 157172
        },
        {
            "buffer" : 0,
            "byteLength" : 48,
            "byteOffset" : 157220
        },
        {
            "buffer" : 0,
            "byteLength" : 32,
            "byteOffset" : 157268
        },
        {
            "buffer" : 0,
            "byteLength" : 12,
            "byteOffset" : 157300
        },
        {
            "buffer" : 0,
            "byteLength" : 90,
            "byteOffset" : 157312
        }
    ],
    "samplers" : [
        {
            "magFilter" : 9729,
            "minFilter" : 9987
        }
    ],
    "buffers" : [
        {
            "byteLength" : 157404,
            "uri" : "data:application/octet-stream;base64,"
        }
    ]
}
